<?xml version="1.0" encoding="utf-8"?>
<!-- Generator: Adobe Illustrator 16.0.3, SVG Export Plug-In . SVG Version: 6.00 Build 0)  -->
<!DOCTYPE svg PUBLIC "-//W3C//DTD SVG 1.1//EN" "http://www.w3.org/Graphics/SVG/1.1/DTD/svg11.dtd">
<svg version="1.1" id="Ebene_1" xmlns="http://www.w3.org/2000/svg" xmlns:xlink="http://www.w3.org/1999/xlink" x="0px" y="0px"
	 width="1000px" height="1000px" viewBox="0 0 1000 1000" enable-background="new 0 0 1000 1000" xml:space="preserve">
<g>
	<path fill="#53A56C" d="M707.938,343.141c-12.463-43.788-31.671-80.375-57.621-109.644
		c-26.068-29.384-72.373-44.017-139.371-44.017c-56.965,0-107.957,23.524-153.033,70.656
		c-44.932,47.104-67.426,127.137-67.426,240.467c0,87.693,18.208,160.063,54.507,217.518
		c36.415,57.337,91.722,86.147,166.007,86.147c52.078,0,95.011-14.291,128.854-42.702c33.898-28.298,56.537-69.799,68.085-124.507
		H893.84c-19.893,101.583-62.195,181.729-127.079,240.382c-64.883,58.65-151.316,87.922-259.503,87.922
		c-123.163,0-221.461-40.305-295.577-120.792c-73.857-80.489-110.786-195.906-110.786-346.366
		c0-150.462,37.815-266.279,113.845-347.655C290.772,69.174,389.183,28.387,509.83,28.387c121.278,0,215.715,33.243,282.941,99.783
		c67.282,66.454,101.068,138.111,101.068,214.971H707.938z"/>
</g>
</svg>
