<?xml version="1.0" encoding="utf-8"?>
<!-- Generator: Adobe Illustrator 16.0.3, SVG Export Plug-In . SVG Version: 6.00 Build 0)  -->
<!DOCTYPE svg PUBLIC "-//W3C//DTD SVG 1.1//EN" "http://www.w3.org/Graphics/SVG/1.1/DTD/svg11.dtd">
<svg version="1.1" id="Ebene_1" xmlns="http://www.w3.org/2000/svg" xmlns:xlink="http://www.w3.org/1999/xlink" x="0px" y="0px"
	 width="18px" height="18px" viewBox="10.264 -12.478 18 18" enable-background="new 10.264 -12.478 18 18" xml:space="preserve">
<g>
	<path d="M22.861-6.102c-0.212-0.748-0.54-1.372-0.984-1.873c-0.445-0.501-1.237-0.751-2.381-0.751
		c-0.973,0-1.844,0.402-2.614,1.207c-0.768,0.804-1.151,2.172-1.151,4.105c0,1.496,0.31,2.733,0.93,3.714
		c0.622,0.979,1.567,1.471,2.836,1.471c0.889,0,1.623-0.244,2.201-0.73c0.579-0.485,0.966-1.194,1.164-2.127h3.175
		c-0.34,1.736-1.063,3.105-2.171,4.107c-1.108,1.002-2.585,1.502-4.432,1.502c-2.104,0-3.784-0.689-5.049-2.064
		c-1.262-1.375-1.893-3.346-1.893-5.915c0-2.568,0.646-4.547,1.946-5.937c1.298-1.389,2.978-2.085,5.038-2.085
		c2.073,0,3.685,0.568,4.835,1.704c1.149,1.136,1.725,2.36,1.725,3.672H22.861z"/>
</g>
</svg>
