<?xml version="1.0" encoding="utf-8"?>
<!-- Generator: Adobe Illustrator 16.0.3, SVG Export Plug-In . SVG Version: 6.00 Build 0)  -->
<!DOCTYPE svg PUBLIC "-//W3C//DTD SVG 1.1//EN" "http://www.w3.org/Graphics/SVG/1.1/DTD/svg11.dtd">
<svg version="1.1" id="Ebene_1" xmlns="http://www.w3.org/2000/svg" xmlns:xlink="http://www.w3.org/1999/xlink" x="0px" y="0px"
	 width="18px" height="18px" viewBox="2.379 -0.987 18 18" enable-background="new 2.379 -0.987 18 18" xml:space="preserve">
<g>
	<path d="M8.184,10.934c0,0.623,0.229,1.186,0.687,1.693c0.458,0.508,1.303,0.762,2.528,0.762c0.904,0,1.659-0.145,2.265-0.434
		c0.606-0.289,0.911-0.801,0.911-1.533c0-0.551-0.212-0.943-0.636-1.176c-0.423-0.232-1.128-0.469-2.116-0.709l-1.629-0.381
		C8.572,8.775,7.361,8.31,6.565,7.759c-0.797-0.55-1.197-1.573-1.197-3.068c0-1.171,0.427-2.243,1.281-3.217
		c0.853-0.973,2.374-1.46,4.561-1.46c2.074,0,3.579,0.519,4.518,1.556c0.938,1.037,1.409,2.155,1.409,3.354h-3.049
		c-0.07-0.606-0.303-1.139-0.697-1.597c-0.396-0.459-1.2-0.688-2.413-0.688c-0.72,0-1.342,0.145-1.863,0.434
		c-0.522,0.29-0.782,0.751-0.782,1.386c0,0.523,0.145,0.89,0.434,1.101c0.288,0.212,0.68,0.375,1.175,0.487l3.702,0.91
		c1.256,0.311,2.232,0.755,2.932,1.333c0.697,0.579,1.047,1.497,1.047,2.75c0,1.539-0.532,2.752-1.599,3.641
		c-1.063,0.889-2.528,1.334-4.39,1.334c-2.47,0-4.169-0.52-5.102-1.557c-0.93-1.037-1.396-2.213-1.396-3.523H8.184z"/>
</g>
</svg>
