<?xml version="1.0" encoding="utf-8"?>
<!-- Generator: Adobe Illustrator 16.0.3, SVG Export Plug-In . SVG Version: 6.00 Build 0)  -->
<!DOCTYPE svg PUBLIC "-//W3C//DTD SVG 1.1//EN" "http://www.w3.org/Graphics/SVG/1.1/DTD/svg11.dtd">
<svg version="1.1" id="Ebene_1" xmlns="http://www.w3.org/2000/svg" xmlns:xlink="http://www.w3.org/1999/xlink" x="0px" y="0px"
	 width="1000px" height="1000px" viewBox="0 0 1000 1000" enable-background="new 0 0 1000 1000" xml:space="preserve">
<g>
	<path fill="#EA6667" d="M305.681,671.092c0,36.659,13.475,69.871,40.423,99.635c26.95,29.88,76.682,44.819,148.707,44.819
		c53.064,0,97.479-8.504,133.105-25.511c35.568-17.01,53.553-47.118,53.553-90.214c0-32.406-12.412-55.505-37.349-69.182
		c-24.995-13.674-66.48-27.58-124.344-41.716l-95.871-22.409c-95.383-22.408-166.635-49.788-213.464-82.224
		c-46.917-32.351-70.445-92.539-70.445-180.51c0-68.895,25.139-131.956,75.386-189.273c50.193-57.258,139.684-85.902,268.366-85.902
		c121.875,0,210.361,30.541,265.639,91.534c55.159,61.022,82.855,126.813,82.855,197.345H652.853
		c-4.137-35.653-17.811-66.997-41.026-93.947c-23.327-27.006-70.443-40.479-141.724-40.479c-42.434,0-79.036,8.534-109.632,25.541
		c-30.713,17.037-45.998,44.187-45.998,81.535c0,30.77,8.533,52.375,25.511,64.785c16.951,12.469,40.022,22.065,69.096,28.644
		l217.688,53.553c73.892,18.3,131.295,44.417,172.494,78.432c41.026,34.074,61.596,88.085,61.596,161.807
		c0,90.557-31.259,161.923-94.119,214.27c-62.517,52.287-148.706,78.488-258.051,78.488c-145.315,0-245.297-30.625-300.199-91.646
		c-54.702-61.024-82.139-130.206-82.139-207.259h179.331V671.092z"/>
</g>
</svg>
